<svg width="19" height="22" viewBox="0 0 19 22" fill="none" xmlns="http://www.w3.org/2000/svg">
<path d="M18.3333 22.0004H16.2963V17.3778C16.2955 16.6591 15.9779 15.9701 15.4133 15.462C14.8486 14.9538 14.0831 14.668 13.2845 14.6673H5.0488C4.25028 14.668 3.48469 14.9538 2.92005 15.462C2.35542 15.9701 2.03785 16.6591 2.03704 17.3778V22.0004H0V17.3778C0.00161723 16.1731 0.534062 15.0182 1.48054 14.1664C2.42703 13.3146 3.71027 12.8354 5.0488 12.834H13.2845C14.6231 12.8354 15.9063 13.3146 16.8528 14.1664C17.7993 15.0182 18.3317 16.1731 18.3333 17.3778V22.0004Z" fill="#012970"/>
<path d="M9.16653 10.9997C7.95787 10.9997 6.77635 10.6771 5.77138 10.0728C4.76642 9.46845 3.98314 8.60949 3.5206 7.60453C3.05807 6.59957 2.93705 5.49373 3.17285 4.42687C3.40864 3.36001 3.99067 2.38003 4.84533 1.61087C5.69998 0.841701 6.78888 0.317892 7.97432 0.10568C9.15976 -0.106532 10.3885 0.002383 11.5052 0.418652C12.6218 0.834922 13.5762 1.53985 14.2477 2.44429C14.9192 3.34873 15.2776 4.41207 15.2776 5.49984C15.276 6.95803 14.6317 8.35609 13.486 9.3872C12.3403 10.4183 10.7868 10.9982 9.16653 10.9997ZM9.16653 1.83328C8.36076 1.83328 7.57308 2.04832 6.9031 2.45121C6.23312 2.85409 5.71094 3.42673 5.40258 4.09671C5.09422 4.76668 5.01354 5.5039 5.17074 6.21514C5.32794 6.92639 5.71596 7.5797 6.28573 8.09248C6.8555 8.60526 7.58143 8.95446 8.37172 9.09594C9.16201 9.23741 9.98118 9.1648 10.7256 8.88729C11.4701 8.60978 12.1063 8.13982 12.554 7.53686C13.0017 6.9339 13.2406 6.22501 13.2406 5.49984C13.2406 4.5274 12.8114 3.5948 12.0473 2.90719C11.2833 2.21958 10.247 1.83328 9.16653 1.83328Z" fill="#012970"/>
</svg>
