<svg width="22" height="22" viewBox="0 0 22 22" fill="none" xmlns="http://www.w3.org/2000/svg">
<g clip-path="url(#clip0_474_716)">
<path d="M21.1945 8.31319L14.2416 1.35936C13.3811 0.501345 12.2154 0.0195312 11.0003 0.0195312C9.78507 0.0195312 8.61945 0.501345 7.75892 1.35936L0.806005 8.31319C0.549729 8.56782 0.346544 8.8708 0.208231 9.20454C0.0699174 9.53829 -0.000773726 9.89617 0.000255213 10.2574V19.2564C0.000255213 19.9857 0.289987 20.6852 0.805712 21.2009C1.32144 21.7166 2.02091 22.0064 2.75026 22.0064H19.2503C19.9796 22.0064 20.6791 21.7166 21.1948 21.2009C21.7105 20.6852 22.0003 19.9857 22.0003 19.2564V10.2574C22.0013 9.89617 21.9306 9.53829 21.7923 9.20454C21.654 8.8708 21.4508 8.56782 21.1945 8.31319ZM13.7503 20.173H8.25026V16.5669C8.25026 15.8375 8.53999 15.138 9.05571 14.6223C9.57144 14.1066 10.2709 13.8169 11.0003 13.8169C11.7296 13.8169 12.4291 14.1066 12.9448 14.6223C13.4605 15.138 13.7503 15.8375 13.7503 16.5669V20.173ZM20.1669 19.2564C20.1669 19.4995 20.0703 19.7326 19.8984 19.9045C19.7265 20.0764 19.4934 20.173 19.2503 20.173H15.5836V16.5669C15.5836 15.3513 15.1007 14.1855 14.2412 13.3259C13.3816 12.4664 12.2158 11.9835 11.0003 11.9835C9.78468 11.9835 8.61889 12.4664 7.75935 13.3259C6.89981 14.1855 6.41692 15.3513 6.41692 16.5669V20.173H2.75026C2.50714 20.173 2.27398 20.0764 2.10207 19.9045C1.93017 19.7326 1.83359 19.4995 1.83359 19.2564V10.2574C1.83444 10.0145 1.93093 9.78168 2.10217 9.60935L9.05509 2.65827C9.57181 2.14396 10.2712 1.85522 11.0003 1.85522C11.7293 1.85522 12.4287 2.14396 12.9454 2.65827L19.8983 9.61211C20.0689 9.78375 20.1654 10.0155 20.1669 10.2574V19.2564Z" fill="#374957"/>
</g>
<defs>
<clipPath id="clip0_474_716">
<rect width="22" height="22" fill="white"/>
</clipPath>
</defs>
</svg>
